<?xml version="1.0" encoding="UTF-8"?>
<svg width="532.77" height="442.32" version="1.1" viewBox="0 0 532.77 442.32" xmlns="http://www.w3.org/2000/svg"><g transform="matrix(1.3333 0 0 -1.3333 -113.21 601.3)"><g transform="scale(.1)"><g fill="#c932a1"><path d="m2923.6 1209.8v1500.8h602.03v-272.69h-303.18v-333.77h266.09v-272.69h-266.09v-348.99h303.18v-272.66h-602.03"/><path d="m3876.2 1203.3c-60.43 7.27-113.12 16.67-158.19 28.36v246.52c94.52-8.76 175.23-13.18 242.12-13.18 40.71 0 70.52 1.87 89.43 5.53 18.9 3.61 33.46 11.97 43.64 25.04 8.76 13.05 14.92 30.2 18.54 51.27 3.61 21.11 5.44 49.78 5.44 86.16 0 58.17-2.17 98.87-6.53 122.16-4.31 23.25-14.19 40.34-29.41 51.3-15.29 10.86-42.57 20.7-81.86 29.44l-159.2 37.13c-52.39 11.56-89.08 50.79-110.17 117.76-21.11 66.89-31.66 160.62-31.66 281.37 0 125.07 15.63 220.66 46.94 286.84 31.23 66.17 74.53 110.88 129.81 134.14 55.23 23.29 125.74 34.92 211.55 34.92 69.86 0 131.61-4.74 185.43-14.19 53.8-9.48 86.5-17.1 98.14-22.85v-248.71c-5.78 2.92-28 5.81-66.49 8.72-38.57 2.85-81.84 4.34-129.78 4.34-45.13 0-78.97-1.86-101.45-5.47-22.54-3.56-38.16-11.95-46.91-24.99-11.66-11.71-19.27-28.12-22.92-49.1-3.61-21.18-5.44-52.08-5.44-92.79 0-43.52 1.83-75.59 5.44-95.97 3.65-20.35 10.56-35.22 20.76-44.68 10.1-9.53 27.61-17.11 52.33-22.94l137.43-32.65c42.19-10.25 78.17-26.25 107.97-47.99 29.81-21.8 53.44-59.72 70.9-113.51 17.46-52.25 26.19-132.28 26.19-239.87 0-141.12-14.92-247.29-44.75-318.51-29.82-71.26-70.87-118.23-123.26-140.65-52.32-22.62-122.14-33.94-209.37-33.94-49.48 0-104.36 3.76-164.67 10.99"/><path d="m2737.4 2728h-272.13v-1247.2h-171.91v721.66h-272.14v-721.66h-171.93v906.81c-9.01 2.49-17.8 4.63-27.04 7.51-56.21 18.95-149.15 50.11-245.09 81.88v-996.2h-0.03v-288.6h1160.3v288.6h-0.05v1247.2"/></g><path d="m3313.4 4323.5c8.6699 20.75 21.32 33.65 21.32 33.65 2.04 1.4901 3.2701 2.0801 5.05 3.3001 3.78-26.4 5.05-64.33 5.48-90.81-1.06-10.49-1.18-20.59-0.56-30.29-3.89-4.44-48.7-55.12-49.86-60l-1.4499-0.57c-21.98 47.69 2.8799 110.99 20.02 144.72zm1334.6-1155.4c-223.43-192.63-355-126.98-355-126.98-50.58 36.19-326.45 172.97-326.45 172.97-40.41 9.87-349.15 163.1-349.15 163.1-315.96 123.94-676.14 183.8-676.14 183.8l20.47 25.33c213.88-0.79 313.79 127.96 344.72 178.34 42.22 55.05 144.78 96.99 241.84 9.74 72.23-64.96 268.85-90.15 364.89-98.86 65.74-15.9 75.91 8.4501 75.91 8.4501 92.92 58.49-129.58 206.8-129.58 206.8-147.16 83.1-147.21 126.51-147.21 127.12 4.86 6.43 7.63 13.13 10.11 16.05 3.96 4.68 4.3 9.9 4.61 13.72 1.02 1.72 1.93 3.42 2.33 5.12l0.35 0.22c5.16-0.46 9.8099 21.34 16.17 28.26 6.3099 7.11 18.99 34.74 18.99 34.74 13.02 2.58 21.99 6.01 28.39 9.9 5.48 2.97 3 13.28-1.8 24.38-6.2999 16.36-19.82 36.71-19.82 36.71h0.04c-5.7501 8.49-7.24 31.05-7.24 31.05 7.3899 19 9.51 37.7 8.79 55.38-0.23 50.48-23.58 91.39-28.99 100.19-0.14 9.17-0.92 17.86-2.84 25.56-17.73 163.83-338.77 67.3-338.77 67.3-18.9-12.88-76.59 40.69-131.71-82.26-55.12-122.99-136.87-185.08-136.87-185.08-13.4-5.38-25.33-10.47-36.65-15.43-114.57-11.57-195.94-64.89-195.94-64.89-247.7 70.2-772.29 181.57-901.55 208.71l-2.02 0.96c-3.5499 0.84-8.6599 1.61-14.1 2.42-7.7999 1.67-13.26 2.81-13.26 2.81l-2.96-0.95c-50.62 4.96-134.15 6.54-134.15 6.54-130.93-5.52-126.51-98.57-118.41-133.16 8.14-34.49 92.54-3.38 92.54-3.38 2.89 7.95 78.84 0.78 96.74 11.62 6.68 3.99 17.8 6.07 29.17 7.11 316.69-72.43 901.43-313.14 901.43-313.14-70.12-7.79-248-110.36-383.78-194.22-367.03-236.45-309.2-592.54-309.2-592.54-11.05-35.34-118.78-413.6-118.78-413.6-92.04 83.36-288.42 83.36-343.17 100.32-54.69 17.06-304.21 55.09-340.43 60.35-36.21 5.2901-58.57 19.69-66.53 27.08-8.06 7.3499-64.61 30.14-64.61 30.14-52.79 12.93-133.22 5.29-136.48-8.15-3.32-13.45-54.2-116.43-54.2-116.43-131.33-76.67-153.61-269.4-153.61-269.4-3.59-68.07 116.37-1.14 116.37-1.14 233.35 233.03 469.22 146.65 469.22 146.65 72.37-17.75 519.2-168.54 519.2-168.54 223.99-69.21 271.5 29.77 271.5 29.77 15.93 10.26 64.56 92.69 113.84 181.44 1.52 3.9099 3.53 7.8699 6.66 11.97 26.25 47.49 52.27 95.93 73.29 135.46 35.85 82.57 62.36 164.12 62.36 164.12h0.02c27.2 85 67.71 84.47 67.71 84.47l578.15 13.38c329.48 47.71 425.36-17.48 425.36-17.48 117.09-104.91 478.61-154.39 478.61-154.39 202.82-31.93 364.96-190.81 364.96-190.81 86.67-64.04 396.09 362.19 396.09 362.19 98.4 197.32-159.43 39.09-159.43 39.09" fill="#fff" stroke="#4a4faa" stroke-linecap="round" stroke-linejoin="round" stroke-width="30" style="paint-order:normal"/></g></g></svg>
